<?xml version="1.0" encoding="utf-8"?>
<!-- Generator: Adobe Illustrator 24.0.1, SVG Export Plug-In . SVG Version: 6.00 Build 0)  -->
<svg version="1.1" id="Layer_1" xmlns="http://www.w3.org/2000/svg" xmlns:xlink="http://www.w3.org/1999/xlink" x="0px" y="0px"
	 viewBox="0 0 141.7 42.5" style="enable-background:new 0 0 141.7 42.5;" xml:space="preserve">
<style type="text/css">
	.st0{fill:#EDE2D6;}
</style>
<g>
	<path class="st0" d="M108,35.6h3.9l-4.4-8.8c2.2-1,3.7-3.2,3.7-5.7c0-2.8-1.8-5.2-4.4-6c-0.6-0.2-1.5-0.3-2.3-0.3
		c-0.8,0-3.6,0-3.6,0v0h-3.6v20.8h3.6v-8.2l3.1,0L108,35.6z M100.9,17.8h3.4c1.8,0,3.3,1.5,3.3,3.3c0,1.8-1.5,3.3-3.3,3.3l-3.4,0
		V17.8z"/>
	<path class="st0" d="M23.8,14.7v20.8h-3.4V21.3l-5.5,10.1L9.4,21.3v14.3H6.1V14.7h3L15,25.4l5.9-10.7H23.8z"/>
	<path class="st0" d="M114.3,14.7h3.6v20.8h-3.6V14.7z"/>
	<polygon class="st0" points="48.6,35.6 48.6,21.2 56.4,35.6 59.7,35.6 59.7,14.7 56.3,14.7 56.3,29 48.5,14.7 45.3,14.7 45.3,35.6 
			"/>
	<path class="st0" d="M39.3,35.6h3.9l-7-20.8h-3.5l-6.9,20.8h3.8l1.6-5.3h6.6L39.3,35.6z M32.1,27.2l2.4-8.2l0,0l0,0l0,0l2.4,8.2
		H32.1z"/>
	<polygon class="st0" points="124.6,35.6 124.6,21.2 132.4,35.6 135.7,35.6 135.7,14.7 132.3,14.7 132.3,29 124.5,14.7 121.3,14.7 
		121.3,35.6 	"/>
	<path class="st0" d="M72.6,7.2c0-0.1,0-0.2,0-0.2c-0.1,0-0.2,0-0.2,0c-3.2,0-5.9,2.6-5.9,5.9c0,0.1,0,0.2,0,0.2c0.1,0,0.2,0,0.2,0
		C69.9,13,72.6,10.4,72.6,7.2z"/>
	<path class="st0" d="M67.5,14.7H63v20.8h4.5c2.8,0,5.6-1,7.5-2.8c1.9-1.9,2.9-4.7,2.9-7.6s-1-5.7-2.9-7.6
		C73.2,15.7,70.4,14.7,67.5,14.7z M67.5,32.2h-1V18.1h1c1.9,0,3.9,0.6,5.2,1.9c1.3,1.3,1.9,3.2,1.9,5.2c0,1.9-0.6,3.9-1.9,5.2
		C71.4,31.6,69.4,32.2,67.5,32.2z"/>
	<path class="st0" d="M91.4,35.6h3.9l-7-20.8h-3.5l-6.9,20.8h3.8l1.6-5.3h6.6L91.4,35.6z M84.2,27.2l2.4-8.2l0,0l0,0l0,0l2.4,8.2
		H84.2z"/>
</g>
</svg>
