<?xml version="1.0" encoding="utf-8"?>
<!-- Generator: Adobe Illustrator 24.0.1, SVG Export Plug-In . SVG Version: 6.00 Build 0)  -->
<svg version="1.1" id="Layer_1" xmlns="http://www.w3.org/2000/svg" xmlns:xlink="http://www.w3.org/1999/xlink" x="0px" y="0px"
	 viewBox="0 0 136.1 51" style="enable-background:new 0 0 136.1 51;" xml:space="preserve">
<style type="text/css">
	.st0{fill-rule:evenodd;clip-rule:evenodd;fill:#EDE2D6;}
</style>
<g>
	<path class="st0" d="M91.3,21.4c-0.7,0.2-1.2,0.4-1.8,0.5c-2.6,0.3-4.2-0.9-4.7-3.5c-0.5-2.8,0-5.4,2-7.5c1.9-2,4.4-2.2,6.6-0.6
		c0.3,0.2,0.5,0.3,0.7-0.1c0.9-1.2,2.1-0.7,3.2-0.7c0.5,0,0.6,0.5,0.5,1c-0.6,3.8-1,7.5-1.8,11.3c-1,4.8-6.8,7.2-11.2,4.9
		c-0.9-0.5-1.2-1.5-0.7-2.7c0.5-1.3,1.2-1.6,2.3-1.2c0.7,0.3,1.4,0.5,2.1,0.6C90.2,23.5,90.9,23,91.3,21.4z M89.6,16.3
		c0,0.2,0,0.4,0,0.7c0,0.6,0.2,1.2,0.8,1.3c0.6,0.2,1.1-0.3,1.3-0.8c0.6-1,0.7-2.2,0.7-3.4c0-0.5-0.3-1-0.8-1.1
		c-0.6-0.2-0.9,0.2-1.2,0.6C89.8,14.4,89.6,15.3,89.6,16.3z"/>
	<path class="st0" d="M51.5,10c0.2-1.5,0.5-3,0.7-4.5c0.1-1,0.6-1.5,1.7-1.5c0.7,0,1.4,0,2.1,0c0.9,0,1.2,0.4,1.1,1.3
		c-0.5,3.3-1.1,6.7-1.6,10c-0.3,1.6-0.5,3.2-0.8,4.9c-0.1,0.6-0.1,1.4-0.9,1.5c-0.9,0.1-2,0.5-2.7-0.4c-0.4-0.5-0.6-0.4-1-0.1
		c-3.4,2.1-6.9,0.2-7-3.7c-0.1-2.2,0.4-4.3,1.8-6.1C46.5,9.3,48.6,8.9,51.5,10z M47.9,16.4c0,0.3,0,0.5,0,0.8c0,0.5,0.2,1,0.7,1.2
		c0.6,0.2,1-0.1,1.2-0.5c0.7-1.2,1.1-2.5,0.7-3.9c-0.3-1-1.1-1.1-1.8-0.4C48.1,14.3,47.9,15.3,47.9,16.4z"/>
	<path class="st0" d="M96.4,41c-0.3,1.6-0.5,3.1-0.7,4.6c-0.1,1-0.6,1.5-1.6,1.5c-3.8,0-3.5,0.2-2.9-3.1c0.7-4.4,1.4-8.8,2.1-13.2
		c0.1-0.6,0.2-1.3,0.9-1.3c0.9-0.1,2-0.5,2.7,0.4c0.4,0.5,0.6,0.4,0.9,0.1c1.1-0.9,2.4-1,3.7-0.8c1.4,0.2,2.4,1,2.9,2.4
		c0.9,2.8,0.6,5.5-1.1,7.9C101.6,41.8,99.2,42.3,96.4,41z M99.9,34.7c0-0.3,0-0.5,0-0.8c0-0.5-0.2-1-0.8-1.1c-0.5-0.2-1,0.1-1.2,0.5
		c-0.7,1.2-1.1,2.6-0.7,4c0.3,1,1.1,1.1,1.8,0.3C99.7,36.8,99.9,35.7,99.9,34.7z"/>
	<path class="st0" d="M83.2,41c-0.2,1.5-0.5,3-0.7,4.5c-0.1,1-0.6,1.5-1.6,1.6c-3.8,0-3.5,0.2-2.9-3.1c0.7-4.4,1.4-8.8,2.1-13.2
		c0.1-0.6,0.2-1.2,0.9-1.3c0.9-0.1,2-0.5,2.7,0.3c0.4,0.4,0.5,0.5,1,0.2c3.4-2.1,6.8-0.4,7,3.6c0.1,1.5-0.1,3-0.7,4.5
		C89.4,41.3,86.6,42.5,83.2,41z M86.7,34.7c0-0.3,0-0.5,0-0.8c0-0.5-0.2-1-0.7-1.1c-0.5-0.2-1,0.1-1.2,0.5c-0.7,1.2-1.1,2.6-0.7,4
		c0.3,1,1.1,1.1,1.8,0.3C86.5,36.8,86.7,35.8,86.7,34.7z"/>
	<path class="st0" d="M58.7,30c1.1-0.6,2-1,3.2-0.9c1.8,0.1,3,1.1,3.1,2.9c0.1,3-0.7,5.8-1.1,8.7c-0.1,0.8-0.9,0.8-1.6,0.8
		c-1-0.1-2.2,0.5-3.1-0.5c-0.2-0.2-0.1-0.8,0-1.2c0.2-1.6,0.5-3.2,0.8-4.9c0.1-0.5,0.4-1.3-0.5-1.5c-0.8-0.1-1.4,0.4-1.5,1.2
		c-0.2,1.2-0.4,2.4-0.6,3.6c-0.1,0.4-0.1,0.8-0.2,1.2c-0.3,2-0.4,2-2.4,2c-2.7,0-2.7,0-2.3-2.7c0.7-4.5,1.5-9,2.1-13.5
		c0.2-1.1,0.6-1.7,1.8-1.6c0.7,0,1.3,0,2,0c0.9,0,1.2,0.4,1,1.3C59.2,26.6,58.9,28.2,58.7,30z"/>
	<path class="st0" d="M100.2,21.8c-2.4,0-2.4,0-2-2.3c0.4-2.8,0.9-5.7,1.3-8.5c0.1-0.6,0.2-1.3,1-1.3c1,0,2.1-0.5,2.8,0.6
		c0.4,0.7,0.6,0.5,1.1,0.2c1-0.7,2-1.1,3.2-1c1.9,0.1,3.1,1.1,3.2,3c0,2.9-0.7,5.7-1.1,8.5c0,0.2-0.1,0.4-0.3,0.5
		c-0.5,0.5-3.8,0.5-4.2,0.1c-0.4-0.4-0.2-0.9-0.2-1.4c0.2-1.6,0.6-3.2,0.8-4.9c0.1-0.5,0.4-1.3-0.4-1.5c-0.8-0.2-1.4,0.4-1.6,1.2
		c-0.3,1.5-0.5,3-0.8,4.5C102.5,21.8,102.5,21.8,100.2,21.8z"/>
	<path class="st0" d="M72.7,29c4.2,0,6.3,2.7,5.4,7.1c-0.9,4.5-5.4,6.9-9.6,5.1c-2.1-0.9-3-2.7-2.9-5.5C65.9,31.5,68.6,29,72.7,29z
		 M73.4,34.8c0-0.4,0-0.6,0-0.7c0-0.6-0.2-1.2-0.8-1.4c-0.7-0.2-1,0.3-1.3,0.8c-0.7,1.1-0.8,2.3-0.7,3.5c0.1,0.5,0.3,0.9,0.8,1
		c0.5,0.1,0.9-0.2,1.1-0.5C73.2,36.6,73.3,35.6,73.4,34.8z"/>
	<path class="st0" d="M110.3,36.9c0.2,0.7,0.6,1,1.2,1c0.8,0.1,1.5-0.2,2.3-0.5c0.8-0.3,1.5-0.5,2,0.4c0.5,1,0.4,2.2-0.3,2.8
		c-1.8,1.3-6.6,1.8-8.6,0c-2-1.9-1.9-4.2-1.2-6.5c1.2-4.1,4.7-5.5,8.5-4.8c1.4,0.3,2.4,1.2,2.7,2.7c0.3,1.6-0.2,2.9-1.5,3.8
		c-1.3,1-2.9,1.2-4.5,1.1C110.7,36.9,110.5,36.9,110.3,36.9z M111,34.5c0.8,0,1.5-0.8,1.5-1.4c0-0.4-0.3-0.6-0.7-0.6
		c-0.5,0-1.3,1-1.3,1.6C110.5,34.5,110.7,34.5,111,34.5z"/>
	<path class="st0" d="M61.4,17.3c0.1,0.6,0.6,0.9,1.2,0.9c0.8,0,1.5-0.2,2.2-0.5c0.8-0.3,1.6-0.7,2.1,0.4c0.5,1,0.4,2.2-0.3,2.8
		c-1.8,1.5-6.7,1.6-8.5,0c-2.1-1.8-2-4.2-1.3-6.6c1.2-4.1,4.7-5.5,8.5-4.8c1.4,0.3,2.4,1.2,2.7,2.7c0.3,1.6-0.2,2.9-1.5,3.8
		c-1.3,1-2.9,1.2-4.5,1.1C61.8,17.1,61.6,17.1,61.4,17.3z M63.6,13.4c0-0.5-0.3-0.7-0.7-0.6c-0.8,0.2-1.1,0.8-1.2,1.5
		c-0.1,0.4,0.2,0.4,0.5,0.4C62.8,14.7,63.6,14,63.6,13.4z"/>
	<path class="st0" d="M15.9,19.8c-1.1,1.4-2.3,2.1-3.9,2.2c-2.1,0.1-3.3-1-3.3-3.2c0-2,0.5-4,0.8-6c0.1-0.7,0.2-1.4,0.3-2.1
		c0.1-0.4,0.1-0.8,0.6-0.9c0.7-0.1,1.4-0.2,2,0.1c0.3,0.2,0.2,0.5,0.1,0.8c-0.3,2.1-0.6,4.1-1,6.2c0,0.2-0.1,0.4-0.1,0.5
		c0,0.8-0.3,1.8,0.7,2.2c1,0.4,1.8-0.3,2.4-1c0.7-0.7,0.9-1.6,1-2.5c0.3-1.8,0.6-3.7,0.9-5.5c0.1-0.9,0.7-1.1,2-1
		c1,0.1,0.7,0.7,0.6,1.3c-0.3,2.1-0.7,4.2-1,6.3c-0.1,0.8-0.4,1.9,0.7,2.4c1,0.5,1.8-0.3,2.4-1c1.7-2.1,1.9-4.6,1.4-7.2
		c-0.2-0.9-0.4-1.6,0.8-1.9c1.3-0.3,1.8,0,2,1.3c0.6,3.4,0.1,6.5-2.3,9.1c-1.2,1.3-2.6,2-4.4,2C17.1,21.9,16.4,21.4,15.9,19.8z"/>
	<path class="st0" d="M46.1,41.7c-1.1,0.1-2.3-0.1-3.3-0.7c-1.1-0.5-1.4-1.6-0.8-2.8c0.6-1.1,1.1-1.3,2.4-0.6
		c0.6,0.3,1.1,0.6,1.8,0.7c0.4,0.1,0.9,0.2,1-0.3c0.1-0.5-0.4-0.6-0.7-0.7c-0.5-0.2-1.1-0.3-1.6-0.5c-1.1-0.5-2.2-1.1-2.4-2.4
		c-0.2-1.6,0.1-3.1,1.5-4.1c2.2-1.5,4.6-1.5,7-0.6c1,0.4,1.3,1.6,0.7,2.8c-0.5,1-1,1.2-2.2,0.6c-0.7-0.3-1.4-0.6-2.1-0.6
		c-0.2,0-0.5,0.1-0.5,0.4c0,0.2,0.2,0.3,0.4,0.4c0.5,0.2,1.1,0.3,1.6,0.5c2.1,0.8,2.9,1.9,2.8,3.9c-0.1,1.9-1.2,3.3-3.2,3.9
		C47.8,41.7,46.9,41.8,46.1,41.7z"/>
	<path class="st0" d="M72,22c-1.1,0.1-2.2-0.1-3.3-0.7c-1.1-0.5-1.4-1.6-0.7-2.9c0.6-1.1,1.1-1.3,2.4-0.6c0.6,0.3,1.2,0.6,1.9,0.7
		c0.4,0.1,0.8,0.1,0.9-0.4c0.1-0.4-0.4-0.5-0.7-0.6c-0.6-0.2-1.1-0.3-1.7-0.6c-1.1-0.5-2.2-1.1-2.3-2.5c-0.2-1.6,0.1-3.1,1.5-4.1
		c2.2-1.5,4.6-1.5,7-0.6c1,0.4,1.2,1.7,0.7,2.8c-0.5,1-1,1.2-2.2,0.6c-0.6-0.3-1.3-0.6-2-0.6c-0.2,0-0.5,0-0.6,0.3
		c-0.1,0.4,0.2,0.4,0.5,0.5c0.5,0.2,1,0.3,1.5,0.5c2.1,0.7,2.9,1.9,2.8,3.8c-0.1,2-1.2,3.4-3.2,4C73.7,21.9,72.9,22,72,22z"/>
	<path class="st0" d="M16,36.6c0.1-2.2,0.6-4.2,2.3-5.7c1.9-1.7,4.1-1.9,6.4-1.2c1,0.3,1.8,1.1,2.1,2.2c0.8,2.9,0.4,5.6-1.6,7.9
		c-1.5,1.7-3.5,2.1-5.6,1.8C17,41.2,15.9,39.5,16,36.6z M18.7,36.1c-0.1,2,0.5,3.1,1.7,3.4c1.1,0.3,2.5-0.5,3.2-2
		c0.5-1.2,0.8-2.4,0.7-3.7c-0.1-1.1-0.4-2-1.5-2.4c-1.1-0.4-2,0.1-2.8,1C19.1,33.6,18.8,34.9,18.7,36.1z"/>
	<path class="st0" d="M125,33.4c-1.9-0.1-2.4,0.3-2.7,2.2c-0.2,1.5-0.5,3-0.7,4.5c-0.1,0.9-0.6,1.3-1.5,1.3c-0.8,0-1.6,0-2.5,0
		c-0.7,0-1-0.4-0.9-1.1c0.5-3.3,1-6.6,1.6-9.9c0.1-0.7,0.5-1.1,1.2-1.1c1,0,2.1-0.4,2.7,0.9c0.2,0.4,0.5,0,0.7-0.2
		c1-0.8,2.1-1.1,3.3-1c0.3,0,0.7,0,0.9,0.4c0.5,1,0.2,2-0.2,3c-0.3,0.8-0.9,1.1-1.8,1C125.1,33.4,125.1,33.4,125,33.4z"/>
	<path class="st0" d="M27,17c0.1-2.3,0.6-4.2,2.1-5.7c1.6-1.6,3.6-2,5.8-1.5c1.3,0.3,2,1.1,2.2,2.4c0.2,1.6-0.3,3-1.7,3.9
		c-1.4,0.9-3,1.1-4.6,1.1c-1.2,0-1.3,0.2-0.9,1.3c0.5,1.2,1.6,1.7,3.2,1.3c0.5-0.1,1-0.4,1.5-0.6c0.5-0.2,0.9-0.4,1.2,0.2
		c0.3,0.6,0.4,1.3-0.2,1.6c-2,1.2-4.1,1.6-6.3,0.7C27.3,20.6,26.9,18.8,27,17z M31.4,15c0.8-0.1,1.8-0.1,2.6-0.8
		c0.5-0.4,0.8-1,0.6-1.7c-0.2-0.7-0.8-0.9-1.5-0.9c-1.4,0.1-2.1,0.9-2.7,2.1C29.7,14.9,29.8,15.1,31.4,15z"/>
	<path class="st0" d="M14.1,31.5c-1-0.3-1.4,0.3-1.5,1.4c-0.3,2.5-0.8,5-1.2,7.5c-0.1,0.4-0.1,0.9-0.6,0.9c-0.7,0-1.4,0.2-2-0.1
		c-0.3-0.2-0.1-0.6-0.1-0.9c0.4-2.7,0.8-5.3,1.2-8c0.1-0.6,0.1-1-0.6-0.9c-0.4,0-0.8,0.1-0.8-0.5c0-0.5-0.1-1.2,0.7-1.3
		c1-0.1,1.3-0.6,1.4-1.6c0.5-3.7,3.3-5.5,6.8-4.4c0.8,0.3,1.3,0.8,1,1.7c-0.2,0.7-0.6,1.1-1.4,0.8c-0.3-0.2-0.7-0.3-1-0.4
		c-0.8-0.2-1.6,0-2.1,0.7c-0.7,0.8-0.7,1.8-0.8,2.7c0,0.3,0.3,0.2,0.5,0.2c0.4,0,0.9,0,1.3,0c0.5,0.1,1.2-0.3,1.2,0.7
		c-0.1,0.8-0.2,1.5-1.3,1.4C14.8,31.5,14.5,31.5,14.1,31.5z"/>
	<path class="st0" d="M80.5,21.7c-2.4,0-2.4,0-2-2.3c0.4-2.8,0.9-5.6,1.3-8.4c0.1-0.9,0.5-1.4,1.5-1.4c0.8,0,1.6,0,2.3,0
		c0.7,0,1.1,0.3,1,1.1c-0.5,3.3-1,6.5-1.5,9.8c-0.1,0.8-0.6,1.2-1.4,1.2C81.3,21.7,80.9,21.7,80.5,21.7z"/>
	<path class="st0" d="M32.5,30.9c1.1-0.8,2.1-1.6,3.3-1.6c0.6,0,1.5-0.2,1.5,0.9c0,1-0.4,1.8-1.4,1.7c-1-0.1-1.8,0.2-2.6,0.8
		c-0.6,0.4-0.9,1-1,1.7c-0.3,2-0.6,3.9-0.9,5.9c-0.2,1.1-1.5,1.8-2.5,1.2c-0.3-0.2-0.3-0.5-0.2-0.8c0.5-3.5,1.1-7,1.6-10.5
		c0.1-0.6,0.5-0.7,1-0.7c0.5,0,1,0,1.2,0.6C32.4,30.3,32.4,30.5,32.5,30.9z"/>
	<path class="st0" d="M82.9,4c0.3,0,0.5,0,0.8,0c1,0.1,1.8,0.3,1.9,1.5c0.1,1.5-0.3,2.3-1.5,2.6c-0.5,0.2-1,0.2-1.5,0.2
		c-1.9,0-2.5-0.5-2.5-1.9c0-1.7,0.6-2.3,2.5-2.4C82.7,3.9,82.8,3.9,82.9,4C82.9,4,82.9,4,82.9,4z"/>
</g>
</svg>
