<?xml version="1.0" encoding="utf-8"?>
<!-- Generator: Adobe Illustrator 24.0.1, SVG Export Plug-In . SVG Version: 6.00 Build 0)  -->
<svg version="1.1" id="Layer_1" xmlns="http://www.w3.org/2000/svg" xmlns:xlink="http://www.w3.org/1999/xlink" x="0px" y="0px"
	 viewBox="0 0 138 70" style="enable-background:new 0 0 138 70;" xml:space="preserve">
<style type="text/css">
	.st0{fill:#FFFFFF;}
	.st1{font-family:'GraviolaSoft-Heavy';}
	.st2{font-size:35.3479px;}
	.st3{font-family:'GraviolaSoft-Bold';}
	.st4{font-size:48.008px;}
	.st5{font-family:'GraviolaSoft-Medium';}
	.st6{font-size:47px;}
	.st7{letter-spacing:-2;}
</style>
<g>
	<text transform="matrix(0.7 0 0 0.7 3.3889 25.512)" class="st0 st1 st2">manda</text>
	<g>
		<text transform="matrix(0.7 0 0 0.7 3.9835 52.4701)" class="st0 st3 st4">tr</text>
		<text transform="matrix(1 0 0 1 46.7296 52.4701)" class="st0 st5 st6">e</text>
		<text transform="matrix(0.7 0 0 0.7 71.5919 52.4701)" class="st0 st3 st4">n</text>
		<text transform="matrix(1 0 0 1 95.7208 52.4701)" class="st0 st3 st4"> </text>
		<text transform="matrix(1 0 0 1 106.2335 52.4701)" class="st0 st3 st4 st7"> </text>
		<text transform="matrix(0.7 0 0 0.7 114.3468 52.4701)" class="st0 st3 st4">s</text>
	</g>
	<g>
		<path class="st0" d="M104.2,9.3c2,1.9,3.6,4,4.8,6.2c0.3,0.6,0.4,0.8,0.3,1.6c-0.1,0.8-0.3,1-0.9,1.8c-1.8,2.1-4.2,4.3-7.1,6.2
			c-0.8,0.5-1,0.4-1.7-0.3c-0.6-0.7-0.6-1.1,0-1.7c2.1-1.9,3.8-4,4.9-6.1c-0.6-1.9-1.5-4-2.7-5.9c-0.5-1-0.5-1.2,0.3-1.9
			C103,8.6,103.4,8.5,104.2,9.3z"/>
	</g>
	<g>
		<path class="st0" d="M113.4,9.3c2,1.9,3.6,4,4.8,6.2c0.3,0.6,0.4,0.8,0.3,1.6c-0.1,0.8-0.3,1-0.9,1.8c-1.8,2.1-4.2,4.3-7.1,6.2
			c-0.8,0.5-1,0.4-1.7-0.3c-0.6-0.7-0.6-1.1,0-1.7c2.1-1.9,3.8-4,4.9-6.1c-0.6-1.9-1.5-4-2.7-5.9c-0.5-1-0.5-1.2,0.3-1.9
			C112.2,8.6,112.5,8.5,113.4,9.3z"/>
	</g>
	<path class="st0" d="M97.6,49.2c0-0.3,0.3-0.6,0.6-0.6h3.5c4.3,0,6.4-2,6.4-8.1s-2.1-8.1-6.4-8.1h-3.5c-0.3,0-0.6-0.3-0.6-0.6v-2.2
		c0-0.7,0.5-1.2,1.2-1.2h2.9c7.4,0,11.4,3.3,11.4,12.2c0,8.8-4.1,12.2-11.4,12.2h-2.9c-0.7,0-1.2-0.5-1.2-1.2V49.2z"/>
</g>
</svg>
