<svg id="Layer_1" data-name="Layer 1" xmlns="http://www.w3.org/2000/svg" viewBox="0 0 131.22 61.54"><defs><style>.cls-1{font-size:35.35px;font-family:GraviolaSoft-Heavy, Graviola Soft;font-weight:800;}.cls-1,.cls-4,.cls-5,.cls-6,.cls-7,.cls-9{fill:#fff;}.cls-2{letter-spacing:-0.02em;}.cls-3{letter-spacing:0em;}.cls-4,.cls-6,.cls-7{font-size:48.01px;font-family:GraviolaSoft-Bold, Graviola Soft;font-weight:700;}.cls-5{font-size:47px;font-family:GraviolaSoft-Medium, Graviola Soft;font-weight:500;}.cls-6{letter-spacing:0em;}.cls-7{letter-spacing:0em;}.cls-8{letter-spacing:-0.05em;}</style></defs><title>vetor-00</title><text class="cls-1" transform="translate(0 21.28) scale(0.7)">MAN<tspan class="cls-2" x="84.52" y="0">D</tspan><tspan class="cls-3" x="108.52" y="0">A</tspan></text><text class="cls-4" transform="translate(0.59 48.24) scale(0.7)">TR</text><text class="cls-5" transform="translate(43.34 48.24)">e</text><text class="cls-6" transform="translate(68.2 48.24) scale(0.7)">N</text><text class="cls-7" transform="translate(92.33 48.24)"> <tspan class="cls-8" x="10.51" y="0"> </tspan></text><text class="cls-6" transform="translate(110.96 48.24) scale(0.7)">S</text><path class="cls-9" d="M101.19,5.35a24.51,24.51,0,0,1,4.8,6.18,2.1,2.1,0,0,1,.27,1.58,3,3,0,0,1-.91,1.83,38.65,38.65,0,0,1-7.06,6.24c-.78.54-1.05.41-1.65-.33s-.61-1.09,0-1.73A24.7,24.7,0,0,0,101.6,13a24.59,24.59,0,0,0-2.74-5.91c-.5-1-.47-1.25.34-1.89S100.35,4.54,101.19,5.35Z" transform="translate(-0.39 -0.23)"/><path class="cls-9" d="M110.35,5.35a24.74,24.74,0,0,1,4.8,6.18,2.1,2.1,0,0,1,.27,1.58,3,3,0,0,1-.91,1.83,39,39,0,0,1-7.06,6.24c-.78.54-1,.41-1.66-.33s-.6-1.09,0-1.73A24.7,24.7,0,0,0,110.76,13,25,25,0,0,0,108,7.07c-.5-1-.47-1.25.34-1.89S109.51,4.54,110.35,5.35Z" transform="translate(-0.39 -0.23)"/><path class="cls-9" d="M94.63,45.23a.58.58,0,0,1,.57-.57h3.5c4.29,0,6.42-2,6.42-8.14S103,28.39,98.7,28.39H95.2a.58.58,0,0,1-.57-.57V25.58a1.22,1.22,0,0,1,1.22-1.21h2.89c7.36,0,11.41,3.31,11.41,12.15S106.1,48.68,98.74,48.68H95.85a1.22,1.22,0,0,1-1.22-1.21Z" transform="translate(-0.39 -0.23)"/></svg>