<?xml version="1.0" encoding="utf-8"?>
<!-- Generator: Adobe Illustrator 24.0.1, SVG Export Plug-In . SVG Version: 6.00 Build 0)  -->
<svg version="1.1" id="Layer_1" xmlns="http://www.w3.org/2000/svg" xmlns:xlink="http://www.w3.org/1999/xlink" x="0px" y="0px"
	 viewBox="0 0 244 244" style="enable-background:new 0 0 244 244;" xml:space="preserve">
<style type="text/css">
	.st0{fill:none;stroke:#FFFFFF;stroke-width:0.5;stroke-miterlimit:10;}
</style>
<g>
	<line class="st0" x1="20.2" y1="57.2" x2="57.2" y2="20.2"/>
	<line class="st0" x1="12" y1="72.5" x2="72.5" y2="12"/>
	<line class="st0" x1="7.5" y1="84" x2="84" y2="7.5"/>
	<line class="st0" x1="4.7" y1="93.8" x2="93.8" y2="4.7"/>
	<line class="st0" x1="2.9" y1="102.6" x2="102.6" y2="2.9"/>
	<line class="st0" x1="1.9" y1="110.6" x2="110.6" y2="1.9"/>
	<line class="st0" x1="1.4" y1="118.1" x2="118.1" y2="1.4"/>
	<line class="st0" x1="125.2" y1="1.4" x2="1.4" y2="125.2"/>
	<line class="st0" x1="1.8" y1="131.8" x2="131.8" y2="1.8"/>
	<line class="st0" x1="2.5" y1="138.2" x2="138.2" y2="2.5"/>
	<line class="st0" x1="3.4" y1="144.2" x2="144.2" y2="3.4"/>
	<line class="st0" x1="4.7" y1="150" x2="150" y2="4.7"/>
	<line class="st0" x1="6.1" y1="155.6" x2="155.6" y2="6.1"/>
	<line class="st0" x1="7.8" y1="160.9" x2="160.9" y2="7.8"/>
	<line class="st0" x1="9.7" y1="166.1" x2="166.1" y2="9.7"/>
	<line class="st0" x1="11.8" y1="171" x2="171" y2="11.8"/>
	<line class="st0" x1="14" y1="175.8" x2="175.8" y2="14"/>
	<line class="st0" x1="16.4" y1="180.4" x2="180.4" y2="16.4"/>
	<line class="st0" x1="19" y1="184.8" x2="184.8" y2="19"/>
	<line class="st0" x1="21.8" y1="189.1" x2="189.1" y2="21.8"/>
	<line class="st0" x1="24.7" y1="193.2" x2="193.2" y2="24.7"/>
	<line class="st0" x1="27.7" y1="197.2" x2="197.2" y2="27.7"/>
	<line class="st0" x1="30.9" y1="201" x2="201" y2="30.9"/>
	<line class="st0" x1="34.2" y1="204.7" x2="204.7" y2="34.2"/>
	<line class="st0" x1="208.3" y1="37.7" x2="37.7" y2="208.3"/>
	<line class="st0" x1="41.3" y1="211.7" x2="211.7" y2="41.3"/>
	<line class="st0" x1="45.1" y1="214.9" x2="214.9" y2="45.1"/>
	<line class="st0" x1="49" y1="218" x2="218" y2="49"/>
	<line class="st0" x1="53.1" y1="221" x2="221" y2="53.1"/>
	<line class="st0" x1="57.3" y1="223.8" x2="223.8" y2="57.3"/>
	<line class="st0" x1="61.7" y1="226.4" x2="226.4" y2="61.7"/>
	<line class="st0" x1="66.2" y1="228.9" x2="228.9" y2="66.2"/>
	<line class="st0" x1="70.9" y1="231.3" x2="231.3" y2="70.9"/>
	<line class="st0" x1="75.7" y1="233.4" x2="233.4" y2="75.7"/>
	<line class="st0" x1="80.8" y1="235.4" x2="235.4" y2="80.8"/>
	<line class="st0" x1="86" y1="237.2" x2="237.2" y2="86"/>
	<line class="st0" x1="91.5" y1="238.7" x2="238.7" y2="91.5"/>
	<line class="st0" x1="97.2" y1="240" x2="240" y2="97.2"/>
	<line class="st0" x1="103.1" y1="241.1" x2="241.1" y2="103.1"/>
	<line class="st0" x1="109.3" y1="241.9" x2="241.9" y2="109.3"/>
	<line class="st0" x1="115.9" y1="242.4" x2="242.4" y2="115.9"/>
	<line class="st0" x1="122.7" y1="242.6" x2="242.6" y2="122.7"/>
	<line class="st0" x1="130" y1="242.3" x2="242.3" y2="130"/>
	<line class="st0" x1="137.8" y1="241.6" x2="241.6" y2="137.8"/>
	<line class="st0" x1="146.2" y1="240.2" x2="240.2" y2="146.2"/>
	<line class="st0" x1="155.6" y1="237.9" x2="237.9" y2="155.6"/>
	<line class="st0" x1="166.2" y1="234.2" x2="234.2" y2="166.2"/>
	<line class="st0" x1="179.4" y1="228.1" x2="228.1" y2="179.4"/>
</g>
</svg>
