<?xml version="1.0" encoding="utf-8"?>
<!-- Generator: Adobe Illustrator 24.0.1, SVG Export Plug-In . SVG Version: 6.00 Build 0)  -->
<svg version="1.1" id="Isolation_Mode" xmlns="http://www.w3.org/2000/svg" xmlns:xlink="http://www.w3.org/1999/xlink" x="0px"
	 y="0px" viewBox="0 0 88.1 37.7" style="enable-background:new 0 0 88.1 37.7;" xml:space="preserve">
<style type="text/css">
	.st0{fill-rule:evenodd;clip-rule:evenodd;fill:#F28C60;}
</style>
<g>
	<path class="st0" d="M44.3,18.3c0,0.5-0.3,0.7-0.6,1c-4.2,4.2-8.5,8.4-12.7,12.7c-0.7,0.7-1.2,0.7-1.8,0c-1-1-2-2-3-3
		c-0.8-0.7-0.7-1.3,0-2.1c2.6-2.5,5-5.1,7.6-7.6c0.7-0.7,0.8-1.1,0-1.8c-2.6-2.5-5.1-5.1-7.6-7.6c-0.8-0.8-0.8-1.4,0-2.1
		c1-0.9,2-1.9,2.9-2.9c0.6-0.7,1.2-0.7,1.8-0.1c4.2,4.3,8.5,8.5,12.8,12.8C44,17.8,44.1,18.1,44.3,18.3z M30.1,30.6
		c0.3-0.2,0.5-0.4,0.7-0.6c3.6-3.6,7.2-7.2,10.8-10.8c0.6-0.6,0.7-1,0-1.6c-3.2-3.1-6.4-6.3-9.6-9.5c-2-2-2-2-3.9,0
		c-0.6,0.6-0.6,1,0,1.6c2.6,2.6,5.2,5.2,7.8,7.8c0.7,0.7,0.7,1.2,0,1.9c-2.3,2.3-4.6,4.6-6.9,6.9c-1.7,1.7-1.7,1.7,0.1,3.4
		C29.4,30,29.8,30.3,30.1,30.6z"/>
	<path class="st0" d="M8.2,8.9c0-0.4,0.2-0.6,0.5-0.8c1.1-1.1,2.2-2.2,3.3-3.3c0.6-0.6,1.1-0.6,1.6,0c4.3,4.3,8.6,8.6,12.9,12.8
		c0.6,0.6,0.6,1,0,1.6c-4.3,4.3-8.6,8.6-12.8,12.8c-0.6,0.6-1.1,0.6-1.6,0c-1-1.1-2-2.1-3.1-3.1c-0.8-0.7-0.8-1.3,0-2
		c2.6-2.5,5.1-5.1,7.7-7.7c0.7-0.7,0.7-1,0-1.7C14,15,11.5,12.5,9,9.9C8.7,9.6,8.2,9.4,8.2,8.9z M12.7,30.5c0.5,0,0.6-0.3,0.8-0.6
		c3.6-3.6,7.2-7.2,10.8-10.8c0.7-0.7,0.6-1,0-1.6c-3.2-3.1-6.3-6.3-9.5-9.4c-2.1-2.1-2.1-2.1-4.1,0c-0.6,0.6-0.5,0.9,0.1,1.4
		c2.6,2.5,5.1,5.2,7.7,7.7c0.9,0.9,0.9,1.5,0,2.3c-2.6,2.5-5.1,5-7.6,7.6c-0.2,0.2-0.8,0.5-0.6,0.8C11,28.9,11.9,29.7,12.7,30.5z"/>
	<path class="st0" d="M52.1,18.4c-0.3-0.3-0.5-0.6-0.8-0.8c-2.5-2.5-5-5.1-7.6-7.6c-0.9-0.8-0.9-1.4,0-2.2c1-0.9,2-1.9,2.9-2.9
		c0.6-0.6,1.1-0.7,1.7-0.1C52.7,9,57,13.3,61.2,17.6c0.6,0.6,0.6,1,0,1.6C57,23.4,52.7,27.7,48.5,32c-0.7,0.7-1.2,0.6-1.8,0
		c-1-1-2-2.1-3-3c-0.8-0.7-0.7-1.3,0-2c2.6-2.5,5.1-5.1,7.7-7.7C51.6,18.9,51.8,18.7,52.1,18.4z M47.4,30.5c0.5,0,0.6-0.3,0.8-0.5
		c3.6-3.6,7.3-7.3,10.9-10.9c0.7-0.7,0.4-1-0.1-1.5c-3.2-3.1-6.3-6.3-9.5-9.4c-2.1-2.1-2.1-2.1-4.1,0c-0.6,0.6-0.5,0.9,0,1.4
		c2.5,2.5,5,5,7.5,7.5c1.3,1.3,1.3,1.3,0,2.6c-2.5,2.5-5,5-7.5,7.5c-0.2,0.2-0.8,0.6-0.6,0.8C45.8,28.9,46.6,29.7,47.4,30.5z"/>
	<path class="st0" d="M65,4.3c0.4,0,0.6,0.3,0.9,0.5c4.2,4.2,8.4,8.4,12.7,12.6c0.7,0.7,0.7,1.2,0,1.8c-4.2,4.2-8.5,8.4-12.6,12.7
		c-0.7,0.7-1.2,0.7-1.8,0c-0.9-1-1.8-2-2.8-2.8c-1-0.9-1-1.5,0-2.4c2.6-2.4,5-5,7.5-7.5c0.7-0.7,0.7-1,0-1.7c-2.6-2.5-5-5.1-7.6-7.6
		c-0.9-0.8-0.9-1.4,0-2.2c1-0.9,2-1.9,2.9-2.9C64.4,4.6,64.6,4.2,65,4.3z M62.4,8.9c0.3,0.3,0.5,0.6,0.8,0.8c2.3,2.3,4.7,4.7,7,7
		c1.7,1.7,1.7,1.7,0,3.3c-2.4,2.4-4.8,4.8-7.2,7.2c-0.2,0.2-0.9,0.5-0.4,0.9c0.7,0.8,1.5,1.5,2.2,2.2c0.4,0.3,0.6-0.1,0.8-0.3
		c3.7-3.7,7.4-7.4,11.1-11.1c0.4-0.4,0.6-0.7,0.1-1.2c-3.7-3.7-7.5-7.4-11.2-11.2c-0.4-0.4-0.6-0.5-1-0.1c-0.6,0.6-1.2,1.2-1.8,1.9
		C62.6,8.6,62.5,8.7,62.4,8.9z"/>
</g>
</svg>
