<?xml version="1.0" encoding="utf-8"?>
<!-- Generator: Adobe Illustrator 24.0.1, SVG Export Plug-In . SVG Version: 6.00 Build 0)  -->
<svg version="1.1" id="Layer_1" xmlns="http://www.w3.org/2000/svg" xmlns:xlink="http://www.w3.org/1999/xlink" x="0px" y="0px"
	 viewBox="0 0 164 184" style="enable-background:new 0 0 164 184;" xml:space="preserve">
<style type="text/css">
	.st0{opacity:0.8;fill-rule:evenodd;clip-rule:evenodd;fill:#ECE1D5;}
	.st1{fill-rule:evenodd;clip-rule:evenodd;fill:none;stroke:#ECE1D5;stroke-miterlimit:10;}
	.st2{fill:#F6AE90;}
	.st3{fill:#33213D;}
	.st4{fill:#E59383;}
	.st5{fill:#E5517F;}
	.st6{fill:#BC3760;}
	.st7{fill:#F4834A;}
	.st8{fill:#DCE5E6;}
	.st9{fill:#EF6A67;}
	.st10{fill:url(#SVGID_1_);}
	.st11{fill:#D3DFE0;}
	.st12{fill:#F49F4A;}
	.st13{fill:#B8C7C9;}
	.st14{fill-rule:evenodd;clip-rule:evenodd;fill:#FFFFFF;}
	.st15{fill-rule:evenodd;clip-rule:evenodd;fill:none;stroke:#FFFFFF;stroke-miterlimit:10;}
	.st16{fill:#FFDACA;}
	.st17{fill:#F8BFCE;}
	.st18{fill:#FFCEBD;}
	.st19{fill:#FD5D17;}
	.st20{fill:#FC5209;}
	.st21{fill:#FEBEA1;}
	.st22{fill:#FFFFFF;}
	.st23{fill:#FD773B;}
	.st24{fill:#FFEAE1;}
	.st25{fill:#FD5A14;}
	.st26{fill:#FFDED0;}
</style>
<g>
	<path class="st0" d="M220.8-180.5c12.3,0,24.6,0,37,0c9.6,0,16.8,4,20.7,12.9c3.4,7.9,1.9,15.4-3.9,21.7c-6.6,7-14.7,8.8-23.7,5.3
		c-2.4-0.9-3.2-0.3-4.2,1.8c-5.8,12.1-15.7,18.2-28.9,17.7c-13.1-0.5-22.4-7.1-27.4-19.3c-0.8-2-1.6-2.4-3.8-2.1
		c-12.4,2-22.8-5.9-23.6-17.7c-0.8-11.2,8.3-20.3,20.6-20.3C195.9-180.5,208.4-180.5,220.8-180.5z"/>
	<path class="st1" d="M177-257.4c-4.2,0-8.5,0-12.7,0c-3.3,0-5.8-1.4-7.1-4.4c-1.2-2.7-0.7-5.3,1.3-7.4c2.3-2.4,5.1-3,8.2-1.8
		c0.8,0.3,1.1,0.1,1.4-0.6c2-4.1,5.4-6.2,9.9-6.1c4.5,0.2,7.7,2.4,9.4,6.6c0.3,0.7,0.5,0.8,1.3,0.7c4.2-0.7,7.8,2,8.1,6.1
		c0.3,3.9-2.9,7-7.1,7C185.6-257.4,181.3-257.4,177-257.4z"/>
	<g>
		<g>
			<g>
				<path class="st2" d="M285.6-111.3c-1.2-1.8-1.1-4.1-0.1-6c6.7-11.7,35.3-64.4,19.1-80.1c-12.7-12.4-65.3-8-65.3-8
					s-0.6,1-1.5,2.7c-1.7,0.7-2.8,1.6-3.3,3.8c-0.7,2.9-3.9,11.9,2.2,17.7c9.9,9.4,46.6-1.1,49.3,4.5c3,6.2-14,61.6-14,61.6l0.5,0
					c1,1.2,5,2.6,6.8,3.6c1.4,0.8,3,1.2,4.6,1.2h2.5C286.2-110.6,285.9-110.9,285.6-111.3z"/>
			</g>
			<g>
				<path class="st3" d="M272.1-115.2h0.6c1,0,1.9,0.3,2.6,1c1.1,0.9,2.7,1.9,4,2.7c1.4,0.8,3,1.2,4.6,1.2h2.5
					c0.1,0.1,0.2,0.1,0.2,0.1c1.4,0.6,3.1,0.8,3.8,3.3h-7.1c-1.4,0-2.7-0.5-3.8-1.4l-3-2.5c-0.3-0.3-0.8-0.3-1.2-0.1
					c-0.3,0.2-0.5,0.5-0.5,0.9v3.1h-1.7C273.3-106.9,270.8-113.4,272.1-115.2z"/>
			</g>
			<g>
				<path class="st2" d="M257.3-111.3c-1.2-1.8-1.1-4.1-0.1-6c6.6-11.7,35-64.4,18.8-80.1c-6.7-6.6-18.7-8.4-28.5-8.7
					c0.1,1.6,0,3.2-0.3,4.7c-0.3,1.4-0.5,2.8-0.7,4.2c0,0.3-0.2,1.7-0.3,2.3c-0.3,2.6-0.5,5.1-0.6,7.7c-0.2,3.3-0.3,6.6-0.4,9.9
					c6.6-0.3,12.7-2.8,14.3,0.6c3,6.2-15.7,61.6-15.7,61.6l0.5,0c1,1.2,5,2.6,6.8,3.6c1.4,0.8,3,1.2,4.6,1.2h2.5
					C257.9-110.6,257.6-110.9,257.3-111.3z"/>
			</g>
			<g>
				<path class="st3" d="M243.8-115.2h0.6c1,0,1.9,0.3,2.6,1c1.1,0.9,2.7,1.9,4,2.7c1.4,0.8,3,1.2,4.6,1.2h2.5
					c0.1,0.1,0.2,0.1,0.2,0.1c1.4,0.6,3.1,0.8,3.8,3.3h-7.1c-1.4,0-2.7-0.5-3.8-1.4l-3-2.5c-0.3-0.3-0.8-0.3-1.2-0.1
					c-0.3,0.2-0.5,0.5-0.5,0.9v3.1h-1.7C245.1-106.9,242.5-113.4,243.8-115.2z"/>
			</g>
			<g>
				<path class="st4" d="M265.6-156.4l-8-5.2c-0.4,1.7-0.8,3.4-1.3,5.2C260.3-156.3,265.6-156.4,265.6-156.4z"/>
			</g>
			<g>
				<path class="st4" d="M293.9-153.7l-10.2-3.6c-0.3,1.2-0.6,2.5-0.9,3.7C286.4-153.5,293.9-153.7,293.9-153.7z"/>
			</g>
			<g>
				<path class="st5" d="M304.7-197.4c-9.1-8.8-38.4-9.2-54.5-8.6c-9.9-0.6-17.4-0.1-17.4-0.1s-10.8,16.2-1,25.9
					c4.3,4.3,23.2,3.9,27.8,3.5c0.8,2.1-0.4,9-2.5,17.5c3.3,1.6,9.8,3.8,18.1,3.4c2.8-7.7,5-15.6,5.6-22.6c2.8,0,4.8,0.5,5.4,1.6
					c1.1,2.3-0.5,11-2.9,21.3c3.3,1,10.8,3,20.1,0.6C309.5-171.6,312.9-189.4,304.7-197.4z"/>
			</g>
			<g>
				<path class="st6" d="M281-182.4C281-182.4,281-182.4,281-182.4c-0.3,0-0.5-0.3-0.5-0.5c1.1-13.9-11.4-18.5-11.5-18.6
					c-0.2-0.1-0.4-0.4-0.3-0.6c0.1-0.2,0.4-0.4,0.6-0.3c0.1,0,13.3,4.9,12.2,19.5C281.5-182.6,281.3-182.4,281-182.4z"/>
			</g>
			<g>
				<path class="st5" d="M311.6-166.4C311.6-166.4,311.6-166.4,311.6-166.4c-0.1,0-0.2-0.1-0.2-0.2c0-0.2,3.2-15.3,0.5-25.8
					c-2-7.4-10-10.3-10.1-10.3c-0.1,0-0.1-0.1-0.1-0.2c0-0.1,0.1-0.1,0.2-0.1c0.1,0,8.3,2.9,10.3,10.5c2.8,10.6-0.4,25.8-0.5,25.9
					C311.8-166.5,311.7-166.4,311.6-166.4z"/>
			</g>
			<g>
				<path class="st2" d="M290.6-121.3C290.5-121.3,290.5-121.3,290.6-121.3c-0.2-0.1-0.2-0.2-0.2-0.3c7.5-12.2,12.9-27.1,13-27.3
					c0-0.1,0.1-0.1,0.2-0.1c0.1,0,0.1,0.1,0.1,0.2c-0.1,0.1-5.5,15.1-13,27.3C290.7-121.3,290.6-121.3,290.6-121.3z"/>
			</g>
		</g>
		<g>
			<g>
				<path class="st7" d="M235.1-277.5c0,0-1.2-1.7-4.8-2.2c-3.6-0.5-7.2,4.4-6.5,7.8c0.7,3.3,3.4,7.7,2.2,9.5
					c-1.1,1.8-4.5,0.7-6.4,3.7c-1.9,3,0.6,9.7,8,10.5c7.5,0.8,10.3-11.9,8.9-16.4C235.3-269.2,235.1-277.5,235.1-277.5z"/>
			</g>
			<g>
				<g>
					<g>
						<g>
							<g>
								<path class="st8" d="M264.8-275l0.6-0.2c0.8-0.3,1.5-0.8,2-1.4l7.8-8.8l3.8,12.9l0,12.9l-9.6-5.1c-0.7-0.5-1.5-0.7-2.4-0.7
									l-1.3,0C264.1-269.1,264.5-272.9,264.8-275z"/>
							</g>
							<g>
								<path class="st9" d="M257-271.7L257-271.7c0.2-0.5,0.6-1,1.2-1.1l6.6-2.2c-0.4,2.1-0.7,5.9,0.9,9.6l0,0
									c-0.6,0-1.1,0.6-1,1.2l0.7,5.1l-1.2,0.2c-1.8,0.3-3.5-0.9-3.9-2.7l-0.3-1.9c-0.2-0.9-0.7-1.8-1.6-2.2
									c-0.2-0.1-0.3-0.2-0.4-0.3C257.6-266.5,256.8-271.1,257-271.7z"/>
							</g>
						</g>
						<g>
							<linearGradient id="SVGID_1_" gradientUnits="userSpaceOnUse" x1="276.4056" y1="-266.4858" x2="281.8089" y2="-278.8988">
								<stop  offset="0.3469" style="stop-color:#FF9F5A"/>
								<stop  offset="0.5638" style="stop-color:#FFB35A"/>
								<stop  offset="0.7832" style="stop-color:#FFBF5A"/>
								<stop  offset="1" style="stop-color:#FFC35A"/>
							</linearGradient>
							<path class="st10" d="M284-273.4c1.3,7.6,0.1,14.2-2.6,14.7c-2.8,0.5-6.1-5.3-7.4-13c-1.3-7.6-0.1-14.2,2.6-14.7
								C279.4-286.8,282.7-281,284-273.4z"/>
						</g>
						<g>
							<path class="st3" d="M276.7-262.6c-0.2,0-0.3-0.1-0.4-0.2c-1.2-2.4-2.1-5.5-2.7-8.7c-0.5-3.1-0.7-6.1-0.4-8.7
								c0-0.2,0.2-0.4,0.5-0.4c0.2,0,0.4,0.2,0.4,0.5c-0.3,2.5-0.1,5.5,0.4,8.5c0.5,3.2,1.5,6.2,2.6,8.5c0.1,0.2,0,0.5-0.2,0.6
								C276.8-262.6,276.8-262.6,276.7-262.6z"/>
						</g>
						<g>
							<path class="st9" d="M287.9-274L287.9-274c0.2,1.1-0.4,2.2-1.5,2.5l-5.3,1.8c-1.8,0.6-3.8-0.5-4.1-2.5l0,0
								c-0.3-1.9,1.1-3.7,3.1-3.7l5.6-0.1C286.8-275.9,287.7-275.1,287.9-274z"/>
						</g>
					</g>
					<g>
						<path class="st3" d="M258.5-269.3c-0.2,0-0.4-0.1-0.4-0.3c-0.1-0.2,0.1-0.5,0.3-0.5l3-0.8c0.2-0.1,0.5,0.1,0.5,0.3
							c0.1,0.2-0.1,0.5-0.3,0.5l-3,0.8C258.6-269.4,258.5-269.3,258.5-269.3z"/>
					</g>
					<g>
						<path class="st3" d="M258.8-267.8c-0.2,0-0.4-0.1-0.4-0.3c-0.1-0.2,0.1-0.5,0.3-0.5l3-0.8c0.2-0.1,0.5,0.1,0.5,0.3
							c0.1,0.2-0.1,0.5-0.3,0.5l-3,0.8C258.8-267.8,258.8-267.8,258.8-267.8z"/>
					</g>
				</g>
				<g>
					<path class="st3" d="M284.8-282.9c-0.2,0-0.3-0.1-0.4-0.2c-0.1-0.2-0.1-0.5,0.2-0.6l8.1-4.9c0.2-0.1,0.5-0.1,0.6,0.2
						c0.1,0.2,0.1,0.5-0.1,0.6l-8.1,4.9C285-282.9,284.9-282.9,284.8-282.9z"/>
				</g>
				<g>
					<path class="st3" d="M289.6-276.1c-0.2,0-0.4-0.2-0.4-0.4c0-0.2,0.1-0.5,0.4-0.5l10.2-1.7c0.2,0,0.5,0.1,0.5,0.4
						c0,0.2-0.1,0.5-0.4,0.5L289.6-276.1C289.7-276.1,289.6-276.1,289.6-276.1z"/>
				</g>
				<g>
					<path class="st3" d="M297.4-266.6L297.4-266.6l-8.7-0.1c-0.2,0-0.4-0.2-0.4-0.5c0-0.2,0.2-0.4,0.5-0.4l8.7,0.1
						c0.2,0,0.4,0.2,0.4,0.5C297.8-266.8,297.6-266.6,297.4-266.6z"/>
				</g>
			</g>
			<g>
				<path class="st11" d="M283.5-228.4c-1.8-11.2-2-16.7-5.2-22.7c-2.4-4.6-11.7-4.6-11.7-4.6l-4.2,1.3c0,0-0.4,1.5,0.3,4
					c0.8,2.9,1.7,5.9,2.7,8.9c-2.1-5.3-4.6-10.1-5.8-11.3c-4.4-4.5-9.9-5-9.9-5s0,43.6,18.3,47.6
					C278.8-207.8,285.9-213.5,283.5-228.4z"/>
			</g>
			<g>
				<path class="st11" d="M262.8-206.1c-0.1-0.4-3.5-14.4-3.2-19c0.7-10.6,4.7-18.6,1.1-24.6c-5.5-9.3-17.2-9.5-22.7-8.9
					c-5.4,0.5-21.1,5.5-21.5,17.7c0,0.4,18,10.9,16.5,33c0,0.6-0.2,1.2-0.6,1.9C236.3-202.9,253.5-201.8,262.8-206.1z"/>
			</g>
			<g>
				<path class="st7" d="M246.2-272.6c0,0,2-2.3,1.2-6.3c-0.8-4-7.5-4.1-9-2.3c-1.3,1.6-1.1,3-2.8,2.8c-1.7-0.2-4.9,2.1-4.8,4.2
					c0.1,2.1,1.5,3.9,0.7,4.9c-0.8,1-1.4,3.8,0.5,5.3c1.9,1.6,6.1,0.8,7.4,0.3C240.7-264.2,246.2-272.6,246.2-272.6z"/>
			</g>
			<g>
				<g>
					<path class="st2" d="M242.3-262.8l1.4,3.3c0.6,1.4-0.3,2.9-1.7,3.1l0,0c-1.3,0.2-2.5-0.7-2.7-1.9l-0.9-6.1L242.3-262.8z"/>
				</g>
				<g>
					<path class="st4" d="M242.6-262l0.1,0l0.9,2c-0.6,0-1.3-0.1-1.9-0.4c-1.1-0.6-2-2.4-2-2.4L242.6-262z"/>
				</g>
				<g>
					<path class="st2" d="M236.7-268.1c0.3-0.1,0.5-0.1,0.8,0L237-270c-0.1-1.6,1-3.2,4.2-4.1c2.2-0.6,3.4,0.4,4.3,2.7
						c1.2,2.9,1.9,6.3,1.1,7.6c-0.6,1-1.9,1.4-4,1.9c-1.8,0.4-3.6-0.7-4.1-2.5l0,0c-0.9,0.2-1.7,0.2-2.2-0.6
						C235.7-266,235.8-267.8,236.7-268.1z"/>
				</g>
			</g>
			<g>
				<g>
					<path class="st12" d="M215.1-178.8c0,3-1.7-0.6-3.7,0.4c-1.9,1,0.9,5.2,5.4,4.4c4.5-0.8,4.5-6.5,1.9-9.4
						c-1-1.1-4.2-4.1-7.8-7.6c-1.2,3.8-3,6.4-4.4,7.9C211.5-181.1,215.1-179.7,215.1-178.8z"/>
				</g>
				<g>
					<path class="st11" d="M226.8-255.1c0,0-42,24.5-47,41.9c-4.7,16.3,9.2,33,26.6,30.1c1.4-1.6,3.2-4.1,4.4-7.9
						c0.7-8.5-12-12.2-12.3-14.7c-0.8-6.7,18.9-23.6,26-27C228.2-234.4,226.8-255.1,226.8-255.1z"/>
				</g>
			</g>
			<g>
				<path class="st2" d="M215.1-178.8c0,3-1.7-0.6-3.7,0.4c-1.9,1,0.9,5.2,5.4,4.4c4.5-0.8,4.5-6.5,1.9-9.4c-1-1.1-4.2-4.1-7.8-7.6
					c-1.2,3.8-3,6.4-4.4,7.9C211.5-181.1,215.1-179.7,215.1-178.8z"/>
			</g>
			<g>
				<path class="st2" d="M264.7-264.2c0,0-0.2-0.9-0.7-0.5c-0.5,0.3,0.4,3.9,1.2,4.5C266-259.8,265.4-263.3,264.7-264.2z"/>
			</g>
			<g>
				<path class="st13" d="M272.6-220.4C272.5-220.4,272.5-220.4,272.6-220.4c-0.3,0-0.4-0.2-0.4-0.4c0-7.2-6.3-18.6-6.4-18.8
					c-0.1-0.2,0-0.5,0.2-0.6c0.2-0.1,0.5,0,0.6,0.2c0.3,0.5,6.5,11.8,6.5,19.2C273-220.5,272.8-220.4,272.6-220.4z"/>
			</g>
			<g>
				<path class="st13" d="M260.7-209.2c-0.2,0-0.4-0.2-0.4-0.4c-0.1-0.7-1.7-17.1-0.3-22.5c1.4-5.5,1.1-10.6-0.8-13.6
					c-2.6-4.1-5.5-8.4-5.5-8.5c-0.1-0.2-0.1-0.5,0.1-0.6c0.2-0.1,0.5-0.1,0.6,0.1c0,0,3,4.4,5.5,8.5c2,3.2,2.4,8.6,0.9,14.3
					c-1.3,5.2,0.3,22,0.3,22.1C261.2-209.5,261-209.2,260.7-209.2C260.7-209.2,260.7-209.2,260.7-209.2z"/>
			</g>
			<g>
				<path class="st13" d="M222-237c-1-0.6-2.3,4.5-3,7.9c2.3-1.6,4.3-2.9,5.7-3.6c0.1-0.1,0.2-0.1,0.3-0.2
					C225-233,223.4-236.1,222-237z"/>
			</g>
			<g>
				<path class="st11" d="M182.7-222.2c0,0-0.1,0-0.1,0c-0.1-0.1-0.1-0.2-0.1-0.3c9.5-14.1,28.4-24.8,28.6-24.9
					c0.1-0.1,0.2,0,0.3,0.1c0.1,0.1,0,0.2-0.1,0.3c-0.2,0.1-19,10.7-28.5,24.7C182.8-222.2,182.7-222.2,182.7-222.2z"/>
			</g>
			<g>
				<path class="st11" d="M285.7-218.7C285.7-218.7,285.6-218.7,285.7-218.7c-0.2,0-0.2-0.2-0.2-0.3c3.3-10.2-2.4-25.5-2.5-25.6
					c0-0.1,0-0.2,0.1-0.3c0.1,0,0.2,0,0.3,0.1c0.1,0.2,5.8,15.6,2.5,25.9C285.9-218.8,285.8-218.7,285.7-218.7z"/>
			</g>
			<g>
				<path class="st2" d="M266.2-257.5c-0.3-1.1-1-2-2.1-2.5c-1.3-0.6-2.9-1.3-3.1-1.6c-0.4-0.4,0.7-1.4,0.5-2
					c-0.2-0.6-1.2,0.3-1.8,1.7c-0.3,0.7,0.2,1.8,0.8,2.7c0.8,1.2,1.3,2.4,1.7,3.8l0.3,1l4.2-1.3L266.2-257.5z"/>
			</g>
		</g>
	</g>
</g>
<g>
	<path class="st14" d="M67.9,109.3c12.3,0,24.6,0,37,0c9.6,0,16.8,4,20.7,12.9c3.4,7.9,1.9,15.4-3.9,21.7c-6.6,7-14.7,8.8-23.7,5.3
		c-2.4-0.9-3.2-0.3-4.2,1.8C87.9,163,78,169.2,64.8,168.7c-13.1-0.5-22.4-7.1-27.4-19.3c-0.8-2-1.6-2.4-3.8-2.1
		c-12.4,2-22.8-5.9-23.6-17.7c-0.8-11.2,8.3-20.3,20.6-20.3C42.9,109.3,55.4,109.3,67.9,109.3z"/>
	<path class="st15" d="M24,32.4c-4.2,0-8.5,0-12.7,0C8,32.4,5.5,31,4.2,28c-1.2-2.7-0.7-5.3,1.3-7.4c2.3-2.4,5.1-3,8.2-1.8
		c0.8,0.3,1.1,0.1,1.4-0.6c2-4.1,5.4-6.2,9.9-6.1c4.5,0.2,7.7,2.4,9.4,6.6c0.3,0.7,0.5,0.8,1.3,0.7c4.2-0.7,7.8,2,8.1,6.1
		c0.3,3.9-2.9,7-7.1,7C32.6,32.4,28.3,32.4,24,32.4z"/>
	<g>
		<g>
			<path class="st16" d="M132.6,178.5c-1.2-1.8-1.1-4.1-0.1-6c6.7-11.7,35.3-64.4,19.1-80.1c-12.7-12.4-65.3-8-65.3-8
				s-0.6,1-1.5,2.7c-1.7,0.7-2.8,1.6-3.3,3.8c-0.7,2.9-3.9,11.9,2.2,17.7c9.9,9.4,46.6-1.1,49.3,4.5c3,6.2-14,61.6-14,61.6l0.5,0
				c1,1.2,5,2.6,6.8,3.6c1.4,0.8,3,1.2,4.6,1.2h2.5C133.2,179.2,132.9,178.9,132.6,178.5z"/>
		</g>
	</g>
	<g>
		<g>
			<path class="st17" d="M119.1,174.6h0.6c1,0,1.9,0.3,2.6,1c1.1,0.9,2.7,1.9,4,2.7c1.4,0.8,3,1.2,4.6,1.2h2.5
				c0.1,0.1,0.2,0.1,0.2,0.1c1.4,0.6,3.1,0.8,3.8,3.3h-7.1c-1.4,0-2.7-0.5-3.8-1.4l-3-2.5c-0.3-0.3-0.8-0.3-1.2-0.1
				c-0.3,0.2-0.5,0.5-0.5,0.9v3.1h-1.7C120.4,182.9,117.8,176.4,119.1,174.6z"/>
		</g>
	</g>
	<g>
		<g>
			<path class="st16" d="M104.4,178.5c-1.2-1.8-1.1-4.1-0.1-6c6.6-11.7,35-64.4,18.8-80.1c-6.7-6.6-18.7-8.4-28.5-8.7
				c0.1,1.6,0,3.2-0.3,4.7c-0.3,1.4-0.5,2.8-0.7,4.2c0,0.3-0.2,1.7-0.3,2.3c-0.3,2.6-0.5,5.1-0.6,7.7c-0.2,3.3-0.3,6.6-0.4,9.9
				c6.6-0.3,12.7-2.8,14.3,0.6c3,6.2-15.7,61.6-15.7,61.6l0.5,0c1,1.2,5,2.6,6.8,3.6c1.4,0.8,3,1.2,4.6,1.2h2.5
				C104.9,179.2,104.6,178.9,104.4,178.5z"/>
		</g>
	</g>
	<g>
		<g>
			<path class="st17" d="M90.9,174.6h0.6c1,0,1.9,0.3,2.6,1c1.1,0.9,2.7,1.9,4,2.7c1.4,0.8,3,1.2,4.6,1.2h2.5
				c0.1,0.1,0.2,0.1,0.2,0.1c1.4,0.6,3.1,0.8,3.8,3.3h-7.1c-1.4,0-2.7-0.5-3.8-1.4l-3-2.5c-0.3-0.3-0.8-0.3-1.2-0.1
				c-0.3,0.2-0.5,0.5-0.5,0.9v3.1h-1.7C92.1,182.9,89.6,176.4,90.9,174.6z"/>
		</g>
	</g>
	<g>
		<path class="st18" d="M112.7,133.4l-8-5.2c-0.4,1.7-0.8,3.4-1.3,5.2C107.3,133.5,112.7,133.4,112.7,133.4z"/>
	</g>
	<g>
		<path class="st18" d="M140.9,136.1l-10.2-3.6c-0.3,1.2-0.6,2.5-0.9,3.7C133.5,136.3,140.9,136.1,140.9,136.1z"/>
	</g>
	<g>
		<g>
			<path class="st19" d="M151.7,92.4c-9.1-8.8-38.4-9.2-54.5-8.6c-9.9-0.6-17.4-0.1-17.4-0.1s-10.8,16.2-1,25.9
				c4.3,4.3,23.2,3.9,27.8,3.5c0.8,2.1-0.4,9-2.5,17.5c3.3,1.6,9.8,3.8,18.1,3.4c2.8-7.7,5-15.6,5.6-22.6c2.8,0,4.8,0.5,5.4,1.6
				c1.1,2.3-0.5,11-2.9,21.3c3.3,1,10.8,3,20.1,0.6C156.5,118.2,159.9,100.4,151.7,92.4z"/>
		</g>
	</g>
	<g>
		<g>
			<path class="st20" d="M128,107.4C128,107.4,128,107.4,128,107.4c-0.3,0-0.5-0.3-0.5-0.5c1.1-13.9-11.4-18.5-11.5-18.6
				c-0.2-0.1-0.4-0.4-0.3-0.6c0.1-0.2,0.4-0.4,0.6-0.3c0.1,0,13.3,4.9,12.2,19.5C128.5,107.2,128.3,107.4,128,107.4z"/>
		</g>
	</g>
	<g>
		<g>
			<path class="st21" d="M158.6,123.4C158.6,123.4,158.6,123.4,158.6,123.4c-0.1,0-0.2-0.1-0.2-0.2c0-0.2,3.2-15.3,0.5-25.8
				c-2-7.4-10-10.3-10.1-10.3c-0.1,0-0.1-0.1-0.1-0.2c0-0.1,0.1-0.1,0.2-0.1c0.1,0,8.3,2.9,10.3,10.5c2.8,10.6-0.4,25.8-0.5,25.9
				C158.8,123.3,158.7,123.4,158.6,123.4z"/>
		</g>
	</g>
	<g>
		<path class="st17" d="M137.6,168.5C137.6,168.5,137.5,168.5,137.6,168.5c-0.2-0.1-0.2-0.2-0.2-0.3c7.5-12.2,12.9-27.1,13-27.3
			c0-0.1,0.1-0.1,0.2-0.1c0.1,0,0.1,0.1,0.1,0.2c-0.1,0.1-5.5,15.1-13,27.3C137.7,168.5,137.7,168.5,137.6,168.5z"/>
	</g>
	<g>
		<path class="st7" d="M82.1,12.3c0,0-1.2-1.7-4.8-2.2c-3.6-0.5-7.2,4.4-6.5,7.8c0.7,3.3,3.4,7.7,2.2,9.5c-1.1,1.8-4.5,0.7-6.4,3.7
			c-1.9,3,0.6,9.7,8,10.5c7.5,0.8,10.3-11.9,8.9-16.4C82.3,20.6,82.1,12.3,82.1,12.3z"/>
	</g>
	<g>
		<g>
			<path class="st22" d="M111.9,14.8l0.6-0.2c0.8-0.3,1.5-0.8,2-1.4l7.8-8.8l3.8,12.9l0,12.9l-9.6-5.1c-0.7-0.5-1.5-0.7-2.4-0.7
				l-1.3,0C111.1,20.7,111.5,16.9,111.9,14.8z"/>
		</g>
	</g>
	<g>
		<g>
			<path class="st23" d="M104.1,18.1L104.1,18.1c0.2-0.5,0.6-1,1.2-1.1l6.6-2.2c-0.4,2.1-0.7,5.9,0.9,9.6l0,0c-0.6,0-1.1,0.6-1,1.2
				l0.7,5.1l-1.2,0.2c-1.8,0.3-3.5-0.9-3.9-2.7l-0.3-1.9c-0.2-0.9-0.7-1.8-1.6-2.2c-0.2-0.1-0.3-0.2-0.4-0.3
				C104.6,23.3,103.8,18.8,104.1,18.1z"/>
		</g>
	</g>
	<g>
		<g>
			<path class="st24" d="M131.1,16.4c1.3,7.6,0.1,14.2-2.6,14.7c-2.8,0.5-6.1-5.3-7.4-13c-1.3-7.6-0.1-14.2,2.6-14.7
				C126.5,3,129.7,8.8,131.1,16.4z"/>
		</g>
	</g>
	<g>
		<g>
			<path class="st25" d="M123.7,27.2c-0.2,0-0.3-0.1-0.4-0.2c-1.2-2.4-2.1-5.5-2.7-8.7c-0.5-3.1-0.7-6.1-0.4-8.7
				c0-0.2,0.2-0.4,0.5-0.4c0.2,0,0.4,0.2,0.4,0.5c-0.3,2.5-0.1,5.5,0.4,8.5c0.5,3.2,1.5,6.2,2.6,8.5c0.1,0.2,0,0.5-0.2,0.6
				C123.8,27.2,123.8,27.2,123.7,27.2z"/>
		</g>
	</g>
	<g>
		<g>
			<path class="st23" d="M134.9,15.8L134.9,15.8c0.2,1.1-0.4,2.2-1.5,2.5l-5.3,1.8c-1.8,0.6-3.8-0.5-4.1-2.5l0,0
				c-0.3-1.9,1.1-3.7,3.1-3.7l5.6-0.1C133.8,13.9,134.7,14.7,134.9,15.8z"/>
		</g>
	</g>
	<g>
		<path class="st3" d="M105.5,20.5c-0.2,0-0.4-0.1-0.4-0.3c-0.1-0.2,0.1-0.5,0.3-0.5l3-0.8c0.2-0.1,0.5,0.1,0.5,0.3
			c0.1,0.2-0.1,0.5-0.3,0.5l-3,0.8C105.6,20.5,105.6,20.5,105.5,20.5z"/>
	</g>
	<g>
		<path class="st3" d="M105.8,22c-0.2,0-0.4-0.1-0.4-0.3c-0.1-0.2,0.1-0.5,0.3-0.5l3-0.8c0.2-0.1,0.5,0.1,0.5,0.3
			c0.1,0.2-0.1,0.5-0.3,0.5l-3,0.8C105.9,22,105.8,22,105.8,22z"/>
	</g>
	<g>
		<g>
			<path class="st22" d="M131.8,6.9c-0.2,0-0.3-0.1-0.4-0.2c-0.1-0.2-0.1-0.5,0.2-0.6l8.1-4.9c0.2-0.1,0.5-0.1,0.6,0.2
				c0.1,0.2,0.1,0.5-0.1,0.6l-8.1,4.9C132,6.9,131.9,6.9,131.8,6.9z"/>
		</g>
	</g>
	<g>
		<g>
			<path class="st22" d="M136.6,13.7c-0.2,0-0.4-0.2-0.4-0.4c0-0.2,0.1-0.5,0.4-0.5l10.2-1.7c0.2,0,0.5,0.1,0.5,0.4
				c0,0.2-0.1,0.5-0.4,0.5L136.6,13.7C136.7,13.7,136.7,13.7,136.6,13.7z"/>
		</g>
	</g>
	<g>
		<g>
			<path class="st22" d="M144.4,23.2L144.4,23.2l-8.7-0.1c-0.2,0-0.4-0.2-0.4-0.5c0-0.2,0.2-0.4,0.5-0.4l8.7,0.1
				c0.2,0,0.4,0.2,0.4,0.5C144.9,23,144.7,23.2,144.4,23.2z"/>
		</g>
	</g>
	<g>
		<path class="st22" d="M130.6,61.4c-1.8-11.2-2-16.7-5.2-22.7c-2.4-4.6-11.7-4.6-11.7-4.6l-4.2,1.3c0,0-0.4,1.5,0.3,4
			c0.8,2.9,1.7,5.9,2.7,8.9c-2.1-5.3-4.6-10.1-5.8-11.3c-4.4-4.5-9.9-5-9.9-5s0,43.6,18.3,47.6C125.8,82,132.9,76.3,130.6,61.4z"/>
	</g>
	<g>
		<path class="st22" d="M109.8,83.7c-0.1-0.4-3.5-14.4-3.2-19c0.7-10.6,4.7-18.6,1.1-24.6c-5.5-9.3-17.2-9.5-22.7-8.9
			c-5.4,0.5-21.1,5.5-21.5,17.7c0,0.4,18,10.9,16.5,33c0,0.6-0.2,1.2-0.6,1.9C83.3,86.9,100.5,88.1,109.8,83.7z"/>
	</g>
	<g>
		<path class="st7" d="M93.2,17.2c0,0,2-2.3,1.2-6.3c-0.8-4-7.5-4.1-9-2.3c-1.3,1.6-1.1,3-2.8,2.8c-1.7-0.2-4.9,2.1-4.8,4.2
			c0.1,2.1,1.5,3.9,0.7,4.9c-0.8,1-1.4,3.8,0.5,5.3c1.9,1.6,6.1,0.8,7.4,0.3C87.8,25.6,93.2,17.2,93.2,17.2z"/>
	</g>
	<g>
		<path class="st16" d="M89.3,27l1.4,3.3c0.6,1.4-0.3,2.9-1.7,3.1l0,0c-1.3,0.2-2.5-0.7-2.7-1.9l-0.9-6.1L89.3,27z"/>
	</g>
	<g>
		<path class="st4" d="M89.6,27.8l0.1,0l0.9,2c-0.6,0-1.3-0.1-1.9-0.4c-1.1-0.6-2-2.4-2-2.4L89.6,27.8z"/>
	</g>
	<g>
		<path class="st16" d="M83.7,21.7c0.3-0.1,0.5-0.1,0.8,0L84,19.8c-0.1-1.6,1-3.2,4.2-4.1c2.2-0.6,3.4,0.4,4.3,2.7
			c1.2,2.9,1.9,6.3,1.1,7.6c-0.6,1-1.9,1.4-4,1.9c-1.8,0.4-3.6-0.7-4.1-2.5l0,0c-0.9,0.2-1.7,0.2-2.2-0.6
			C82.8,23.8,82.8,22,83.7,21.7z"/>
	</g>
	<g>
		<g>
			<path class="st22" d="M62.1,111c0,3-1.7-0.6-3.7,0.4c-1.9,1,0.9,5.2,5.4,4.4c4.5-0.8,4.5-6.5,1.9-9.4c-1-1.1-4.2-4.1-7.8-7.6
				c-1.2,3.8-3,6.4-4.4,7.9C58.5,108.8,62.1,110.1,62.1,111z"/>
		</g>
		<g>
			<path class="st22" d="M73.9,34.7c0,0-42,24.5-47,41.9c-4.7,16.3,9.2,33,26.6,30.1c1.4-1.6,3.2-4.1,4.4-7.9
				c0.7-8.5-12-12.2-12.3-14.7c-0.8-6.7,18.9-23.6,26-27C75.2,55.4,73.9,34.7,73.9,34.7z"/>
		</g>
	</g>
	<g>
		<g>
			<path class="st16" d="M62.1,111c0,3-1.7-0.6-3.7,0.4c-1.9,1,0.9,5.2,5.4,4.4c4.5-0.8,4.5-6.5,1.9-9.4c-1-1.1-4.2-4.1-7.8-7.6
				c-1.2,3.8-3,6.4-4.4,7.9C58.5,108.8,62.1,110.1,62.1,111z"/>
		</g>
	</g>
	<g>
		<path class="st16" d="M111.8,25.6c0,0-0.2-0.9-0.7-0.5c-0.5,0.3,0.4,3.9,1.2,4.5C113.1,30,112.4,26.5,111.8,25.6z"/>
	</g>
	<g>
		<path class="st26" d="M119.6,69.5C119.6,69.5,119.6,69.5,119.6,69.5c-0.3,0-0.4-0.2-0.4-0.4c0-7.2-6.3-18.6-6.4-18.8
			c-0.1-0.2,0-0.5,0.2-0.6c0.2-0.1,0.5,0,0.6,0.2c0.3,0.5,6.5,11.8,6.5,19.2C120,69.3,119.8,69.5,119.6,69.5z"/>
	</g>
	<g>
		<path class="st26" d="M107.7,80.6c-0.2,0-0.4-0.2-0.4-0.4c-0.1-0.7-1.7-17.1-0.3-22.5c1.4-5.5,1.1-10.6-0.8-13.6
			c-2.6-4.1-5.5-8.4-5.5-8.5c-0.1-0.2-0.1-0.5,0.1-0.6c0.2-0.1,0.5-0.1,0.6,0.1c0,0,3,4.4,5.5,8.5c2,3.2,2.4,8.6,0.9,14.3
			c-1.3,5.2,0.3,22,0.3,22.1C108.2,80.4,108,80.6,107.7,80.6C107.8,80.6,107.7,80.6,107.7,80.6z"/>
	</g>
	<g>
		<g>
			<path class="st26" d="M69,52.8c-1-0.6-2.3,4.5-3,7.9c2.3-1.6,4.3-2.9,5.7-3.6c0.1-0.1,0.2-0.1,0.3-0.2C72,56.8,70.5,53.7,69,52.8
				z"/>
		</g>
	</g>
	<g>
		<path class="st22" d="M29.7,67.6c0,0-0.1,0-0.1,0c-0.1-0.1-0.1-0.2-0.1-0.3C39,53.1,57.9,42.5,58.1,42.4c0.1-0.1,0.2,0,0.3,0.1
			c0.1,0.1,0,0.2-0.1,0.3c-0.2,0.1-19,10.7-28.5,24.7C29.8,67.6,29.8,67.6,29.7,67.6z"/>
	</g>
	<g>
		<path class="st22" d="M132.7,71.1C132.7,71.1,132.7,71.1,132.7,71.1c-0.2,0-0.2-0.2-0.2-0.3c3.3-10.2-2.4-25.5-2.5-25.6
			c0-0.1,0-0.2,0.1-0.3c0.1,0,0.2,0,0.3,0.1c0.1,0.2,5.8,15.6,2.5,25.9C132.9,71,132.8,71.1,132.7,71.1z"/>
	</g>
	<g>
		<g>
			<path class="st16" d="M113.2,32.3c-0.3-1.1-1-2-2.1-2.5c-1.3-0.6-2.9-1.3-3.1-1.6c-0.4-0.4,0.7-1.4,0.5-2
				c-0.2-0.6-1.2,0.3-1.8,1.7c-0.3,0.7,0.2,1.8,0.8,2.7c0.8,1.2,1.3,2.4,1.7,3.8l0.3,1l4.2-1.3L113.2,32.3z"/>
		</g>
	</g>
</g>
</svg>
