<?xml version="1.0" encoding="utf-8"?>
<!-- Generator: Adobe Illustrator 24.0.1, SVG Export Plug-In . SVG Version: 6.00 Build 0)  -->
<svg version="1.1" id="Layer_1" xmlns="http://www.w3.org/2000/svg" xmlns:xlink="http://www.w3.org/1999/xlink" x="0px" y="0px"
	 viewBox="0 0 116 194" style="enable-background:new 0 0 116 194;" xml:space="preserve">
<style type="text/css">
	.st0{fill:#FFFFFF;}
</style>
<g>
	<path class="st0" d="M109.8,10.8c-2.4,0-4.4-2-4.4-4.4s2-4.4,4.4-4.4c2.4,0,4.4,2,4.4,4.4S112.2,10.8,109.8,10.8z"/>
	<path class="st0" d="M109.8,36.7c-2.4,0-4.4-2-4.4-4.4c0-2.5,2-4.4,4.4-4.4c2.4,0,4.4,2,4.4,4.4C114.2,34.7,112.2,36.7,109.8,36.7z
		"/>
	<path class="st0" d="M109.8,62.6c-2.4,0-4.4-2-4.4-4.4c0-2.5,2-4.4,4.4-4.4c2.4,0,4.4,2,4.4,4.4C114.2,60.6,112.2,62.6,109.8,62.6z
		"/>
	<path class="st0" d="M109.8,88.5c-2.4,0-4.4-2-4.4-4.4c0-2.4,2-4.4,4.4-4.4c2.4,0,4.4,2,4.4,4.4C114.2,86.5,112.2,88.5,109.8,88.5z
		"/>
	<path class="st0" d="M109.8,114.4c-2.4,0-4.4-2-4.4-4.4s2-4.4,4.4-4.4c2.4,0,4.4,2,4.4,4.4S112.2,114.4,109.8,114.4z"/>
	<path class="st0" d="M109.8,140.3c-2.4,0-4.4-2-4.4-4.4c0-2.4,2-4.4,4.4-4.4c2.4,0,4.4,2,4.4,4.4
		C114.2,138.3,112.2,140.3,109.8,140.3z"/>
	<path class="st0" d="M109.8,166.2c-2.4,0-4.4-2-4.4-4.4c0-2.4,2-4.4,4.4-4.4c2.4,0,4.4,2,4.4,4.4
		C114.2,164.2,112.2,166.2,109.8,166.2z"/>
	<path class="st0" d="M109.8,192.1c-2.4,0-4.4-2-4.4-4.4c0-2.4,2-4.4,4.4-4.4c2.4,0,4.4,2,4.4,4.4
		C114.2,190.1,112.2,192.1,109.8,192.1z"/>
	<path class="st0" d="M83.9,10.8c-2.4,0-4.4-2-4.4-4.4s2-4.4,4.4-4.4c2.4,0,4.4,2,4.4,4.4S86.3,10.8,83.9,10.8z"/>
	<path class="st0" d="M83.9,36.7c-2.4,0-4.4-2-4.4-4.4c0-2.5,2-4.4,4.4-4.4c2.4,0,4.4,2,4.4,4.4C88.3,34.7,86.3,36.7,83.9,36.7z"/>
	<path class="st0" d="M83.9,62.6c-2.4,0-4.4-2-4.4-4.4c0-2.5,2-4.4,4.4-4.4c2.4,0,4.4,2,4.4,4.4C88.3,60.6,86.3,62.6,83.9,62.6z"/>
	<path class="st0" d="M83.9,88.5c-2.4,0-4.4-2-4.4-4.4c0-2.4,2-4.4,4.4-4.4c2.4,0,4.4,2,4.4,4.4C88.3,86.5,86.3,88.5,83.9,88.5z"/>
	<path class="st0" d="M83.9,114.4c-2.4,0-4.4-2-4.4-4.4s2-4.4,4.4-4.4c2.4,0,4.4,2,4.4,4.4S86.3,114.4,83.9,114.4z"/>
	<path class="st0" d="M83.9,140.3c-2.4,0-4.4-2-4.4-4.4c0-2.4,2-4.4,4.4-4.4c2.4,0,4.4,2,4.4,4.4C88.3,138.3,86.3,140.3,83.9,140.3z
		"/>
	<path class="st0" d="M83.9,166.2c-2.4,0-4.4-2-4.4-4.4c0-2.4,2-4.4,4.4-4.4c2.4,0,4.4,2,4.4,4.4C88.3,164.2,86.3,166.2,83.9,166.2z
		"/>
	<path class="st0" d="M83.9,192.1c-2.4,0-4.4-2-4.4-4.4c0-2.4,2-4.4,4.4-4.4c2.4,0,4.4,2,4.4,4.4C88.3,190.1,86.3,192.1,83.9,192.1z
		"/>
	<path class="st0" d="M58,10.8c-2.4,0-4.4-2-4.4-4.4s2-4.4,4.4-4.4c2.4,0,4.4,2,4.4,4.4S60.4,10.8,58,10.8z"/>
	<path class="st0" d="M58,36.7c-2.4,0-4.4-2-4.4-4.4c0-2.5,2-4.4,4.4-4.4c2.4,0,4.4,2,4.4,4.4C62.4,34.7,60.4,36.7,58,36.7z"/>
	<path class="st0" d="M58,62.6c-2.4,0-4.4-2-4.4-4.4c0-2.5,2-4.4,4.4-4.4c2.4,0,4.4,2,4.4,4.4C62.4,60.6,60.4,62.6,58,62.6z"/>
	<path class="st0" d="M58,88.5c-2.4,0-4.4-2-4.4-4.4c0-2.4,2-4.4,4.4-4.4c2.4,0,4.4,2,4.4,4.4C62.4,86.5,60.4,88.5,58,88.5z"/>
	<path class="st0" d="M58,114.4c-2.4,0-4.4-2-4.4-4.4s2-4.4,4.4-4.4c2.4,0,4.4,2,4.4,4.4S60.4,114.4,58,114.4z"/>
	<path class="st0" d="M58,140.3c-2.4,0-4.4-2-4.4-4.4c0-2.4,2-4.4,4.4-4.4c2.4,0,4.4,2,4.4,4.4C62.4,138.3,60.4,140.3,58,140.3z"/>
	<path class="st0" d="M58,166.2c-2.4,0-4.4-2-4.4-4.4c0-2.4,2-4.4,4.4-4.4c2.4,0,4.4,2,4.4,4.4C62.4,164.2,60.4,166.2,58,166.2z"/>
	<path class="st0" d="M58,192.1c-2.4,0-4.4-2-4.4-4.4c0-2.4,2-4.4,4.4-4.4c2.4,0,4.4,2,4.4,4.4C62.4,190.1,60.4,192.1,58,192.1z"/>
	<path class="st0" d="M32.1,10.8c-2.4,0-4.4-2-4.4-4.4s2-4.4,4.4-4.4c2.5,0,4.4,2,4.4,4.4S34.6,10.8,32.1,10.8z"/>
	<path class="st0" d="M32.1,36.7c-2.4,0-4.4-2-4.4-4.4c0-2.5,2-4.4,4.4-4.4c2.5,0,4.4,2,4.4,4.4C36.5,34.7,34.6,36.7,32.1,36.7z"/>
	<path class="st0" d="M32.1,62.6c-2.4,0-4.4-2-4.4-4.4c0-2.5,2-4.4,4.4-4.4c2.5,0,4.4,2,4.4,4.4C36.5,60.6,34.6,62.6,32.1,62.6z"/>
	<path class="st0" d="M32.1,88.5c-2.4,0-4.4-2-4.4-4.4c0-2.4,2-4.4,4.4-4.4c2.5,0,4.4,2,4.4,4.4C36.5,86.5,34.6,88.5,32.1,88.5z"/>
	<path class="st0" d="M32.1,114.4c-2.4,0-4.4-2-4.4-4.4s2-4.4,4.4-4.4c2.5,0,4.4,2,4.4,4.4S34.6,114.4,32.1,114.4z"/>
	<path class="st0" d="M32.1,140.3c-2.4,0-4.4-2-4.4-4.4c0-2.4,2-4.4,4.4-4.4c2.5,0,4.4,2,4.4,4.4C36.5,138.3,34.6,140.3,32.1,140.3z
		"/>
	<path class="st0" d="M32.1,166.2c-2.4,0-4.4-2-4.4-4.4c0-2.4,2-4.4,4.4-4.4c2.5,0,4.4,2,4.4,4.4C36.5,164.2,34.6,166.2,32.1,166.2z
		"/>
	<path class="st0" d="M32.1,192.1c-2.4,0-4.4-2-4.4-4.4c0-2.4,2-4.4,4.4-4.4c2.5,0,4.4,2,4.4,4.4C36.5,190.1,34.6,192.1,32.1,192.1z
		"/>
	<path class="st0" d="M6.2,10.8c-2.4,0-4.4-2-4.4-4.4s2-4.4,4.4-4.4c2.5,0,4.4,2,4.4,4.4S8.7,10.8,6.2,10.8z"/>
	<path class="st0" d="M6.2,36.7c-2.4,0-4.4-2-4.4-4.4c0-2.5,2-4.4,4.4-4.4c2.5,0,4.4,2,4.4,4.4C10.6,34.7,8.7,36.7,6.2,36.7z"/>
	<path class="st0" d="M6.2,62.6c-2.4,0-4.4-2-4.4-4.4c0-2.5,2-4.4,4.4-4.4c2.5,0,4.4,2,4.4,4.4C10.6,60.6,8.7,62.6,6.2,62.6z"/>
	<path class="st0" d="M6.2,88.5c-2.4,0-4.4-2-4.4-4.4c0-2.4,2-4.4,4.4-4.4c2.5,0,4.4,2,4.4,4.4C10.6,86.5,8.7,88.5,6.2,88.5z"/>
	<path class="st0" d="M6.2,114.4c-2.4,0-4.4-2-4.4-4.4s2-4.4,4.4-4.4c2.5,0,4.4,2,4.4,4.4S8.7,114.4,6.2,114.4z"/>
	<path class="st0" d="M6.2,140.3c-2.4,0-4.4-2-4.4-4.4c0-2.4,2-4.4,4.4-4.4c2.5,0,4.4,2,4.4,4.4C10.6,138.3,8.7,140.3,6.2,140.3z"/>
	<path class="st0" d="M6.2,166.2c-2.4,0-4.4-2-4.4-4.4c0-2.4,2-4.4,4.4-4.4c2.5,0,4.4,2,4.4,4.4C10.6,164.2,8.7,166.2,6.2,166.2z"/>
	<path class="st0" d="M6.2,192.1c-2.4,0-4.4-2-4.4-4.4c0-2.4,2-4.4,4.4-4.4c2.5,0,4.4,2,4.4,4.4C10.6,190.1,8.7,192.1,6.2,192.1z"/>
</g>
</svg>
